<svg xmlns="http://www.w3.org/2000/svg" viewBox="0 0 192 140"><defs><style>.cls-1{fill:#fff;}.cls-2{fill:#22b573;}.cls-3{fill:#ff1d25;}</style></defs><g id="Layer_2" data-name="Layer 2"><g id="Layer_1-2" data-name="Layer 1"><path class="cls-1" d="M21,45.92c.65.91.79.94,1,1.08a5.41,5.41,0,0,0-.66-1C21.11,45.88,21,45.84,21,45.92Z"/><path class="cls-1" d="M22,47h0Z"/><path class="cls-1" d="M168.75,1.23l-.64.11A1.18,1.18,0,0,0,168.75,1.23Z"/><path class="cls-1" d="M124.08,48.19c1.65-.11,6.48-2.31,11.57-2.63l3.75-.19,3.42-.13a23.55,23.55,0,0,1,4.52.16c1.28.63.36,1.93.36,2.12,1.47-.51.56-1.31,1.84-1.27.37.21,0,1-.18,1.14.55-.17,1.1.23,1.1-.34-.39-.22-.52-.75-.62-1.34-.12-.81-.57.45.24.48l-.9,1,2-2c.36,0-1.28.35.36.79,2.74.3,5.65-.2,8.39-.13,0,.57-.53.94-1.07,1.31.37,0,2.91-3.17,3.29-2.78-.76-1,1.08-.73.52-1.13a3.51,3.51,0,0,1,3.14-1.36c1.11,0,2.21,0,3-.8,0-1-.07-10.1-.14-19.21s-.26-18.24-.4-19.48c.52,0,1,0,1.21.22a1.25,1.25,0,0,0-1.73-.43l.06,1.34c-1.18.55-.38-.77-1.56-.6-.19-1.09.89-1.4,1.85-1.56-.89-.07-1.84-.81-2.07.4C165.17,1.34,166,.4,165,0c-.67.37-1.48,1.49-2.35.9V.71c-2.07-1-2.84,1.83-4.75.81l.16-.37c-.69-.6-1.86.32-3.07-.29.35.2.7,1,0,1.14-1.38-.61-2.22.12-3.25-.69l-.84,1.12c-1.15,0-3.14.15-5.55.37s-5.25.49-8.09.78l-8.1.78c-2.42.21-4.42.38-5.58.44l.18-.17c-1.76.17-4,.29-6.45.4l-3.85.18-4,.16-4,.2c-1.33.07-2.64.15-3.89.24S99,6,97.91,6.15s-2.14.27-3.06.44C93.74,5.52,92.18,5.74,91,5.43c.65.45.41,1.19-.1,1.14-3.6-.19-.26.73-3.92,1.1a27.72,27.72,0,0,1-5,.25c-2.15,0-4.67-.22-7.17-.43s-5-.54-7-.84a38.67,38.67,0,0,1-4.68-.9c-2.1,1.44-4.51.15-6.55,1l.23-.36c-1.07.23-4.56-.19-8.08-.64-1.76-.23-3.53-.46-5-.61-.75-.08-1.42-.13-2-.16a10,10,0,0,0-1.39,0l.32.25a2.76,2.76,0,0,1-1.31.19,1.41,1.41,0,0,1-.76-.41c-.2-.2-.39-.45-.64-.69a2.76,2.76,0,0,0-1-.63c.08,1.76-2.1,2.61-3,2.7L34,6.05a10.66,10.66,0,0,0-1.25.34L31,7c-.59.2-1.25.4-1.88.57a12.57,12.57,0,0,1-1.82.34l.1-1a6.26,6.26,0,0,1-1.73.52,17,17,0,0,1-2.05.2l-2,.07c-.61,0-1.14,0-1.52.09-.91,0-1.94-.14-3.1-.21l-1.83-.08-1,0-1,0A18.14,18.14,0,0,0,5,9.55C4.29,9.29,3.53,9,2.75,8.81S1.16,8.33.36,8.14L0,8.57s.7,2,2,5A117.67,117.67,0,0,0,7.75,24.82C8.94,26.88,10.19,29,11.46,31c.64,1,1.27,2,1.91,3l1.86,2.8c2.41,3.59,4.43,6.55,5.49,8.08l.44.89.11-.16c.4.36,0-.68.37.22a1,1,0,0,0-.27,0c.3.19.38.72.58,1.24a.83.83,0,0,1,.16.13,1.4,1.4,0,0,1,.2.29,2.48,2.48,0,0,0-.29-.56c-.09-.32-.33-1.2-.08-.82.12,0,.25.41.38.78s.27.75.36.78l.11,0,.14.05.28.1.37.12L24,48c.15.05.3.08.45.12l.52.12,1.17.24.68.12.7.12.78.11.82.1.87.09.94.08c.61,0,1.34.09,2,.1.09.4-.06.38-.23.55a11.23,11.23,0,0,1,1.3-.14c.43,0,.85,0,1.31,0s.88,0,1.33,0a14.14,14.14,0,0,0,1.42-.13,2.87,2.87,0,0,1,.68,1.46c-.12-.41,2.5-.44,5.16-.34a41,41,0,0,1,5.46.39l.27-1.71c2,.1.43,2,2.34,1.69.47-1.19,1.24-1.08,2-.83s1.49.63,1.86,0c0,.19.89.32.78,1.07.37-1.3,1-.25,1.57-.56.24-.36-.13-.4-.26-.81l1.36-.4c.49.46.57,1.24,0,1.35.86.16,2.55.43,4.65.69s4.63.56,7.16.82,5.08.43,7.23.54a30.35,30.35,0,0,0,4.85,0c-.45-1-1.63-.37-2-1.95,1-.85,1.45.34,1.91-.57.31,2.34,2.16.61,2.85,3L86.21,52l.47.82c4.39-1.27,1-.64,4.87-.26,2.25-.17,3.33-2,4.56-1.29-.18,0-.66-.83-.08-1.16.08,1.16,1.54-.81,1.81.36.57-.14,2.4,0,1.79-1.57.31.79,1.94,1.13,1,1.81.55,0,1.08.29,1.48-.06l-.71-.45c1.86-.21,2.88,1,4.09-.4l-.69-.64c1.12-.09,2-.22,2.49,1.36l-1.14.48a8.42,8.42,0,0,0,4.49-1l-.55,0c2-1.55,12.31.26,14-1.74"/><path class="cls-2" d="M20.82,91.21a2.71,2.71,0,0,0,2.35,1.29A2.36,2.36,0,0,0,20.82,91.21Z"/><path class="cls-2" d="M23.18,92.53l0,0h0S23.18,92.52,23.18,92.53Z"/><path class="cls-2" d="M191.42,45.18l-.73,0A1.3,1.3,0,0,0,191.42,45.18Z"/><path class="cls-2" d="M64.68,94.75,64.77,93c2,0,.64,2,2.5,1.57C68,92,70.39,94.76,71,93.42c0,.2.91.26.87,1,.25-1.37.93-.33,1.51-.68.2-.38-.17-.41-.33-.82l1.31-.49c.53.44.67,1.24.11,1.39,1.74.24,6.77.64,11.83.93s10.15.44,12,.11c-.48-1-1.63-.34-2.08-2,1-.91,1.46.32,1.89-.63.39,2.41,2.17.58,2.93,3l.27-1.37.5.84c4.33-1.41,1-.7,4.83-.36,2.23-.2,3.29-2.09,4.53-1.38-.19,0-.68-.86-.1-1.2.1,1.2,1.54-.86,1.82.36.57-.15,2.4,0,1.78-1.63.31.82,2,1.17,1,1.87.55.06,1.08.31,1.48,0l-.7-.47c1.86-.22,2.87,1.07,4.09-.41l-.68-.66c1.11-.09,2-.2,2.47,1.43l-1.15.48a8.27,8.27,0,0,0,4.51-1l-.55,0c2-1.6,12.27-2.8,14.12-4.79l-.81-1.28,1.58-1c-.19,0-.83,4.08-1,3.67,3.34-.07,20.73-.68,23.79.29,1.22.73.15,2,.13,2.21,1.53-.43.7-1.32,2-1.18.35.24-.1,1-.31,1.16.57-.13,1.08.32,1.14-.27-.69-.47-.34-2-.6-3l1.65.18-.11,1c.37,0,1-2.67,2.64-2.09,2.73.51,5.73.26,8.48.58-.07.59-.66.92-1.26,1.25.37,0,.94-.09,1.26.34-.62-1.06,1.19-.66.69-1.11,2.12-2.35,4.64,0,6.5-1.62.13-1.08,1.5-10.37,2.88-19.71s2.75-18.72,2.81-20c.57.07,1.13.13,1.29.35-.12-.61-1.22-.94-1.83-.61L190,47.41c-1.39.44-.29-.83-1.62-.78,0-1.14,1.22-1.34,2.3-1.4-1-.17-1.9-1-2.35.19-.89-.5.17-1.38-.91-1.9-.8.3-1.88,1.37-2.75.67l0-.2c-2.14-1.24-3.42,1.6-5.37.38l.23-.37c-.68-.68-2.11.16-3.36-.58.36.24.64,1.07-.13,1.18-1.44-.76-2.46-.08-3.5-1l-1.07,1.08c-1.28-.1-3.5-.1-6.19-.06s-5.85.14-9,.27l-9,.36c-2.7.12-4.92.21-6.2.23l.2-.17c-3.91.19-9.87.23-15.86.39-3,.08-6,.2-8.76.39a67.73,67.73,0,0,0-7.29.83c-1.25-1.1-3-.85-4.27-1.17.72.46.48,1.24-.09,1.19-4-.14-.27.75-4.27,1.21-4.61,1-22.26-.11-26.38-1-2.17,1.62-4.94.44-7.07,1.48l.21-.39c-2.3.62-15.44-.68-18.11,0l.36.23c-2.31,1-2.05-.72-3.91-1.24.3,1.8-1.67,2.87-2.43,3v-.4c-1.14.33-3.69,1.95-5.59,2.24l0-1c-1.55,1.1-4.55.73-5.69.86-2.63-.35-6.74-2-10.17-.55l-2.39-2.75-.32.29s-.48,8.52-.33,17.93.92,19.71,3.36,23.26l0,1,.89-.15c1.09.45,1.53-.7,1.51.28l-1.48-.08c1.09.26.37.8,0,1.37a2.74,2.74,0,0,1,1.26.48c.19-.38-.17-.4-.35-.61.56-.36,1.32-1.31,2-.88,1.11.06.15,1.59,1.44,1.67,3.4.27,6.75.68,10.1,1a77.32,77.32,0,0,0,10.11.26c.17.4,0,.39-.21.58,2-.47,3.88-.36,5.74-.82a3.22,3.22,0,0,1,.86,1.44C53.86,94.77,64.51,94.52,64.68,94.75Z"/><path class="cls-3" d="M12.3,137.75a3.13,3.13,0,0,0,2.57,1.13C14,137.92,13.19,137.54,12.3,137.75Z"/><path class="cls-3" d="M14.89,138.9h0Z"/><path class="cls-3" d="M177.82,82.15l-.74.08A1.34,1.34,0,0,0,177.82,82.15Z"/><path class="cls-3" d="M56.44,138.53l-.19-1.78c2-.17,1,2,2.72,1.42.29-2.56,3.13,0,3.54-1.34,0,.2.94.21,1,1,0-1.38.88-.39,1.39-.77.15-.39-.22-.4-.44-.8l1.23-.57c.59.41.85,1.2.32,1.38,1.76.14,6.81.24,11.87.24,2.53,0,5.06,0,7.18-.14a29.85,29.85,0,0,0,4.75-.45c-.63-1-1.67-.24-2.34-1.84.85-1,1.49.24,1.78-.74.73,2.39,2.24.46,3.33,2.85l.09-1.38.6.81c4.11-1.65.89-.75,4.75-.63,2.18-.32,3-2.26,4.31-1.63-.18,0-.78-.81-.25-1.19.25,1.19,1.42-.94,1.85.26.54-.18,2.39-.12,1.56-1.73.42.8,2.08,1.06,1.2,1.82.56,0,1.12.24,1.47-.14l-.76-.43c1.83-.32,3,.91,4-.63l-.77-.62c1.1-.15,2-.32,2.64,1.28l-1.08.55a7.85,7.85,0,0,0,4.36-1.21l-.55,0c.88-.86,3.85-1.71,6.8-2.63s5.88-1.87,6.68-2.91l-1-1.23,1.45-1.11c-.19,0-.35,4.11-.54,3.71,3.31-.25,20.58-1.77,23.73-1,1.29.67.36,2,.37,2.2,1.47-.51.55-1.36,1.84-1.28.37.22,0,1-.18,1.18.55-.17,1.1.26,1.1-.33-.73-.44-.54-2-.91-3l1.66.09v1c.37,0,.75-2.72,2.42-2.22,2.77.37,5.74,0,8.51.15,0,.59-.57,1-1.13,1.31.37,0,.93-.14,1.29.28-.72-1,1.12-.71.58-1.15,1.89-2.45,4.63-.27,6.34-1.93,0-1.09.54-10.43,1.07-19.82s1.08-18.84,1-20.13c.58,0,1.16.08,1.34.29-.17-.61-1.32-.88-1.92-.53l0,1.39c-1.37.5-.36-.82-1.72-.71-.12-1.13,1.12-1.39,2.22-1.51-1-.12-2-.93-2.38.31-.95-.46,0-1.38-1.11-1.85-.79.34-1.78,1.46-2.74.8V81.3c-2.31-1.14-3.34,1.75-5.45.64l.2-.39c-.76-.64-2.13.27-3.48-.41.39.23.76,1,0,1.19-1.54-.69-2.52,0-3.67-.82l-1,1.13c-1.3,0-3.57.08-6.31.27s-5.95.43-9.16.73l-9.15.84c-2.73.26-5,.47-6.29.56l.19-.19c-2,.21-4.48.4-7.25.6s-5.81.41-8.85.66-6.08.55-8.86.89a67.49,67.49,0,0,0-7.31,1.24c-1.41-1-3.13-.68-4.49-.92.79.42.65,1.2.07,1.19-4.05.1-.18.77-4.18,1.46a32.72,32.72,0,0,1-5.52.7c-2.4.15-5.22.25-8,.28-1.4,0-2.81,0-4.16,0s-2.64,0-3.83-.06a48.74,48.74,0,0,1-5.39-.35c-2,1.75-5,.74-7,1.91l.15-.39c-1.12.39-5.06.43-9,.52s-8,.15-9.34.56l.41.19c-2.18,1.19-2.2-.58-4.18-1,.6,1.77-1.23,3-2,3.15l-.05-.39c-1.11.4-3.43,2.17-5.3,2.58l-.13-1c-1.39,1.19-4.49,1-5.62,1.22-2.72-.18-7.17-1.5-10.4.12L3.56,95.49l-.27.3s1,8.51,2.84,17.85,4.42,19.53,7.47,22.91l.15,1,.85-.21c1.17.39,1.4-.79,1.55.19l-1.47,0c1.12.18.5.77.22,1.36a3.09,3.09,0,0,1,1.34.39c.12-.39-.24-.39-.46-.58.49-.4,1.08-1.39,1.88-1,1.11,0,.42,1.58,1.71,1.57,3.43.05,6.82.25,10.19.31a76.94,76.94,0,0,0,10.07-.38c.24.4,0,.4-.11.59,1.95-.58,3.79-.59,5.56-1.17A3.59,3.59,0,0,1,46.17,140C45.7,139.21,56.23,138.32,56.44,138.53Z"/></g></g></svg>