<svg xmlns="http://www.w3.org/2000/svg" viewBox="0 0 500 88"><defs><style>.cls-1{fill:#f2f2f2;}</style></defs><g id="Layer_2" data-name="Layer 2"><g id="Layer_3" data-name="Layer 3"><path class="cls-1" d="M48.49,87.19a11.3,11.3,0,0,0-2.73-.6,3.72,3.72,0,0,1-2.12-1.41,4,4,0,0,1-.82-2.5,4.79,4.79,0,0,1,.11-1.2,4,4,0,0,0,.6-1.68,12.7,12.7,0,0,0,.27-2.45A8.88,8.88,0,0,0,44.35,76c.14-.47.32-1.15.54-2q.87-4.78,4-16.08c2.11-7.54,3.42-11.55,3.93-12.06v-1.2a7.13,7.13,0,0,1,.22-1.3,5.85,5.85,0,0,1,1-2.07,23.23,23.23,0,0,0,.71-2.55c.18-.83.31-1.46.38-1.9a16.68,16.68,0,0,0,1.47-3.26L58,30c.51-1.38,1.14-3,1.91-4.84s1.29-3.06,1.58-3.64V21a14.09,14.09,0,0,0,1.15-2.23c.61-1.34,1.14-2.48,1.58-3.42q.77-1.74,4-9l1.2-2.5a9.24,9.24,0,0,0,1-2.6A3.22,3.22,0,0,1,72.83,0a4.38,4.38,0,0,1,3.11,1.47,13.38,13.38,0,0,1,2.35,3.09L79.38,6.3l-4,7.82q-1.64,2.94-3,5.49a13.25,13.25,0,0,0-1.31,3c-.21.51-.6,1.56-1.14,3.15s-1.15,3.4-1.8,5.43c-1,2.75-1.86,4.82-2.51,6.19a8.38,8.38,0,0,0-.88,2.07q0-.44,12.12-.44c1.24,0,3.49,0,6.77-.11a61.62,61.62,0,0,0,6.22-.32L95.53,38l3.06-9.66q1.08-3.81,4.8-14.78a20,20,0,0,1,3.49-6.79c1.31-1.48,2.48-2.23,3.5-2.23a6.91,6.91,0,0,1,2.23,1.25,5.76,5.76,0,0,1,2.13,2.12,3.53,3.53,0,0,1,1.2,2.5,8.88,8.88,0,0,1-1.74,4.24,68.49,68.49,0,0,0-3.72,8.58c-.65,2-1,3.08-1.2,3.37A4.58,4.58,0,0,1,108.19,30a13.51,13.51,0,0,0-1.53,3.09,16.76,16.76,0,0,0-1.09,3.1,6.57,6.57,0,0,1-.32,1.9,3.68,3.68,0,0,1-.77,1.47l-.76,2.6a198.08,198.08,0,0,1-6,19.12,6.81,6.81,0,0,1-.55,2,6.48,6.48,0,0,0-.55,2c-.14.5-.47,1.52-1,3a14.81,14.81,0,0,0-.76,2.71q-.76,3.38-1.53,7.93c-.51,3-.84,5.18-1,6.41a6.71,6.71,0,0,1-3.06-.21A11.38,11.38,0,0,1,87,83.93c-.73-.48-1.24-.78-1.53-.93a4.32,4.32,0,0,1-2.62-3.91,7.88,7.88,0,0,1,1-3.37,69,69,0,0,0,2.08-7.06l1-4q.87-2.39,1.53-4.62c.43-1.48.83-2.77,1.2-3.85q1.74-6.3,2.18-6.74V48.35c-.22-.37-2.36-.55-6.44-.55a115.61,115.61,0,0,0-13.86.87H62.14q-.55,1.2-3.17,9.51A93.33,93.33,0,0,0,56,68.77q-.77,3.58-2.4,9.94C52.53,83,51.69,86,51.11,88,50.68,87.85,49.8,87.58,48.49,87.19Z"/><path class="cls-1" d="M111.25,74.64q-3.82-3.48-3.82-9.89a51.85,51.85,0,0,1,.33-5.54A25.56,25.56,0,0,1,109.88,52a40.55,40.55,0,0,1,5.24-8.91,20.85,20.85,0,0,1,7.81-6.41,22.34,22.34,0,0,1,3.49-1.36,12.83,12.83,0,0,1,3.27-.38A14.3,14.3,0,0,1,137,36.61a10.18,10.18,0,0,1,3.93,3.7A7.7,7.7,0,0,1,142,43.89v.87a15,15,0,0,1-1.53,4.78,19.59,19.59,0,0,1-4.86,6.52,13.51,13.51,0,0,1-8.57,3.37,25.64,25.64,0,0,1-5.07-.49,21.92,21.92,0,0,0-3.11-.49,2,2,0,0,0-2.08,1.19,13.09,13.09,0,0,0-.43,4c.22,2,.78,3.45,1.69,4.24a5.86,5.86,0,0,0,4,1.2,8,8,0,0,0,3.06-.76,26.87,26.87,0,0,0,4.15-2.72,16.07,16.07,0,0,1,2.07-1.52,3.71,3.71,0,0,1,1.86-.44A3.63,3.63,0,0,1,135.48,65a4.29,4.29,0,0,1,1.42,2.5,10.3,10.3,0,0,1-2.4,3.91,21.81,21.81,0,0,1-5.68,4.67,14.51,14.51,0,0,1-7.53,2.06Q115.07,78.11,111.25,74.64ZM128,51.5a16.81,16.81,0,0,0,3.33-2.77c1.49-1.49,2.27-2.52,2.34-3.1a2.16,2.16,0,0,0-.93-1.79,5.36,5.36,0,0,0-2.56-.93h-1.2q-1.43,0-4.09,2.34a25.22,25.22,0,0,0-4.64,5.38c.07.36.62.67,1.63.92a13.23,13.23,0,0,0,3.28.38A6.38,6.38,0,0,0,128,51.5Z"/><path class="cls-1" d="M163.09,83a23,23,0,0,1-8.68-3.8,12.67,12.67,0,0,1-5.18-8.1,40.26,40.26,0,0,1-.76-8.15,72,72,0,0,1,2.83-19.23q1.09-3.8,5.73-11.73A106.41,106.41,0,0,1,165.71,19,63.08,63.08,0,0,1,174,11.25q5.63-4.62,7.48-5.38a7.66,7.66,0,0,1,3.49-.76,12.67,12.67,0,0,1,2.73.32,11.27,11.27,0,0,1,4.85,2c1.79,1.16,2.75,2.21,2.9,3.15a.38.38,0,0,0,.43.43,6.8,6.8,0,0,0,2-.54A5,5,0,0,1,200,9.13a8.33,8.33,0,0,1,2.84-.55c.94,0,1.45.22,1.53.65a1.34,1.34,0,0,0-.22.77,1.12,1.12,0,0,0,.43,1c.37-.14.29,1-.21,3.32a19.9,19.9,0,0,1-1.75,5.27l-.33,1.08V21a2.7,2.7,0,0,1-1,1.74q-.66,1-1.86,6a28.66,28.66,0,0,0-1.09,6.09c.07.29-.09.5-.49.65a4.88,4.88,0,0,1-1.58.22,10.72,10.72,0,0,1-3.82-.66,7,7,0,0,1-2.51-1.41,2.93,2.93,0,0,1-.77-2.17,16.88,16.88,0,0,1,.88-4.24,35.36,35.36,0,0,0,1.74-7.82,3.65,3.65,0,0,0-1.31-3.15,2,2,0,0,0-1.25-1,6,6,0,0,0-2-.33,4.86,4.86,0,0,0-2.18.55q-2.52,1-7.42,5.59a67.94,67.94,0,0,0-8.41,9.4,60.19,60.19,0,0,0-8,14.83,42.24,42.24,0,0,0-2.67,14.29,31.35,31.35,0,0,0,1.63,10.21,10.08,10.08,0,0,0,1.31,1.9,8.94,8.94,0,0,0,1.75,1.79,18.89,18.89,0,0,0,4.47.44,49.7,49.7,0,0,0,5.24-.33,16,16,0,0,0,6.61-2.39,21.79,21.79,0,0,0,4.63-5,2.8,2.8,0,0,1,2.3-1.41,3.41,3.41,0,0,1,2.62,1.52,7.54,7.54,0,0,1,1.52,3.59c0,.65-.63,2-1.91,4s-2.23,3.06-2.89,3.21c-.29.07-.45.16-.49.27a1.23,1.23,0,0,0,0,.6c0,.43-.8,1.06-2.4,1.9a40.07,40.07,0,0,1-5.84,2.39A31.23,31.23,0,0,1,171,83.65,30.46,30.46,0,0,1,163.09,83Z"/><path class="cls-1" d="M253.24,71.38a2.87,2.87,0,0,1-.77,2c-.51.58-.94.87-1.31.87A16.13,16.13,0,0,1,245.33,73q-3.22-1.24-3.22-3.64V62.58c0-2.9-.26-4.56-.77-5-1.09-.58-2.55.24-4.36,2.44a86.94,86.94,0,0,0-6.66,9.84,19.1,19.1,0,0,1-2.62,3.42,3.06,3.06,0,0,1-2,1,2,2,0,0,1-1.31-.43q-3.39-1-3.39-3.81a9.2,9.2,0,0,1,.22-1.41c.66-2.24,1.36-4.74,2.13-7.49s1.36-5.11,1.8-7.07a1.13,1.13,0,0,0-1.09-.65,4.36,4.36,0,0,0-2.51,1.09c-.29.22-.82.56-1.58,1a12.87,12.87,0,0,0-2.3,1.85,17,17,0,0,0-2.34,3.09c-.3.51-.8,1.27-1.53,2.29q-5.46,8.25-6.66,9.34a7.49,7.49,0,0,1-1,2.12,1.41,1.41,0,0,1-1.14.59,2.5,2.5,0,0,1-1.09-.32,8.23,8.23,0,0,1-3.33-2.77,7.29,7.29,0,0,1-1.26-4.29,41.54,41.54,0,0,1,1-6.52q1-4.89,2.18-9.13a17.9,17.9,0,0,0,1.36-3.64,12.33,12.33,0,0,0,.49-2.66,55.31,55.31,0,0,1,1.31-5.59c.66-2.36,1.13-3.64,1.42-3.86a3.43,3.43,0,0,1,2.4-.65,6.09,6.09,0,0,1,2.29.43,2.76,2.76,0,0,1,1.53,1.31,6.52,6.52,0,0,1,1.42,4.45,15.82,15.82,0,0,1-1.09,5.54c-.73,1.67-1.64,4.09-2.73,7.28l.22-.22A89.82,89.82,0,0,1,217.88,46a14.49,14.49,0,0,1,4.42-3.37,9.67,9.67,0,0,1,4-1.2A7.17,7.17,0,0,1,230.7,44a10.7,10.7,0,0,1,2.24,5.81,27.69,27.69,0,0,1-.22,3.2c-.15,1.27-.26,2.09-.33,2.45.29-.36,1-1.25,2.24-2.66a40.82,40.82,0,0,1,4.42-4.4,7.47,7.47,0,0,1,4.47-1.85,4,4,0,0,1,3.06,1.41,9.39,9.39,0,0,1,3.77,4.56,17.94,17.94,0,0,1,1.36,7.17,16.88,16.88,0,0,1-.11,2.18,16.7,16.7,0,0,0-.11,2.17,12.16,12.16,0,0,0,.33,2.88c.22.91.44,1.72.65,2.44A3.67,3.67,0,0,1,253.24,71.38Z"/><path class="cls-1" d="M257.82,66a31.84,31.84,0,0,1,2.57-11.57,49.63,49.63,0,0,1,6.43-11.63q3.89-5.16,7.7-6.9a10.23,10.23,0,0,1,4.8-1.08,16.81,16.81,0,0,1,8.57,2.11q3.66,2.13,3.66,8a15.16,15.16,0,0,1-2.3,7.39,23.47,23.47,0,0,1-5.73,6.79,10.83,10.83,0,0,1-6.71,2.77,11.71,11.71,0,0,1-8.29-3.15,15.68,15.68,0,0,0-1.86,7.06,10.5,10.5,0,0,0,.66,4.18c.43,1,1.45,1.47,3.05,1.47a9,9,0,0,0,3.71-.65,15.61,15.61,0,0,0,2.62-1.52c.8-.58,1.42-1,1.86-1.31l.43-.22h-.11c1.31-.72,2.28-1.28,2.9-1.68a6.77,6.77,0,0,1,1.58-.81,5.31,5.31,0,0,1,3.06,1,2.85,2.85,0,0,1,1.41,2.39c0,.73-.65,1.9-2,3.53a12,12,0,0,1-4,3.43l-1.31.65h.11a2.63,2.63,0,0,1-2,1.3h-.88c-.29.58-1.25,1.16-2.89,1.74a13.91,13.91,0,0,1-4.64.87Q257.83,80.07,257.82,66ZM281,51.28a8.5,8.5,0,0,0,2-5.22,4.07,4.07,0,0,0-.6-2.17,1.81,1.81,0,0,0-1.58-1,7.13,7.13,0,0,0-4.15,1.74,16.58,16.58,0,0,0-4,4.57l-1.42,2.28a1.6,1.6,0,0,1,.66-.22,1.41,1.41,0,0,1,1.31.76,6.06,6.06,0,0,0,1,1.3,2.37,2.37,0,0,0,1.75.55A6.16,6.16,0,0,0,281,51.28Z"/><path class="cls-1" d="M352.34,28.36c-.73,1.73-1.75,2.64-3.06,2.71l-2.4-.49a10.39,10.39,0,0,1-3.55-1.46,3.34,3.34,0,0,1-1.69-2.94,19.21,19.21,0,0,1,.76-3.58,36.92,36.92,0,0,0,1.2-5.87,4.11,4.11,0,0,0-2.94-4.34q-3.39,0-8.62,5.21a83.12,83.12,0,0,0-10.37,12.93,90.83,90.83,0,0,0-8.08,14.67q-5.34,15.31-6,20.64a11.19,11.19,0,0,1,.22,2.5c0,.5-.11.76-.33.76a10.45,10.45,0,0,0,2,4.72,4.86,4.86,0,0,0,4,2.34,24,24,0,0,0,5.62-.82,14.57,14.57,0,0,0,4.86-1.9,8.27,8.27,0,0,0,2.78-.81c1.27-.55,2.13-.93,2.57-1.14Q332.69,70,335,69.15a12.86,12.86,0,0,1,4.26-.81,18.58,18.58,0,0,1,2.95.43q-.12.44-.33,1.68A18.21,18.21,0,0,1,341.2,73a16.09,16.09,0,0,1-3.33,3.69A22.44,22.44,0,0,1,333.78,79a18.1,18.1,0,0,0-3.71,1.85,29.83,29.83,0,0,1-15.61,4.78,22.53,22.53,0,0,1-7.58-1.47,21.81,21.81,0,0,1-6.71-3.64,30.69,30.69,0,0,1-2.3-5.86A26.69,26.69,0,0,1,296.46,69a3.51,3.51,0,0,1,.21-1,3.27,3.27,0,0,0,.22-1V66a4.29,4.29,0,0,1-.22-1.31c.08-2.24,1-6,2.79-11.13a185,185,0,0,1,7.15-17.44A82.46,82.46,0,0,1,314.52,23a98.79,98.79,0,0,1,10.8-12.77q5.63-5.54,9.34-7a12.27,12.27,0,0,1,3.71-.76,15.26,15.26,0,0,1,7.42,1.9,14.23,14.23,0,0,1,5.67,5.87,20.1,20.1,0,0,1,2.19,9.83A25.86,25.86,0,0,1,352.34,28.36Z"/><path class="cls-1" d="M350.59,74.2a9,9,0,0,1-3.06-4.45,10.07,10.07,0,0,1-.22-1.85c0-2.82.91-6.25,2.73-10.26a46.5,46.5,0,0,1,7.37-11.36,28.45,28.45,0,0,1,10.2-7.71,9.33,9.33,0,0,1,2.95-1.2,9.33,9.33,0,0,1,2.95,1.2A17.73,17.73,0,0,1,377,39.76a7.19,7.19,0,0,1,2.4,2.07,23.79,23.79,0,0,1,2.08,7,14,14,0,0,1,.65,3.26,2.09,2.09,0,0,1-.65,1.52,4.44,4.44,0,0,0-.39.44.94.94,0,0,0-.27.48c0,.11.07.17.22.17a2.87,2.87,0,0,1-.11.49,6.46,6.46,0,0,1-.44,1,23.07,23.07,0,0,0-1.31,6.41,9.35,9.35,0,0,0,.22,1.85q1.1,2.82,2.73,2.82c1,0,2.18-.65,3.49-2a5.93,5.93,0,0,1,3.28-1.08c.65,0,1,.18,1,.54a3.68,3.68,0,0,0,.44.33,1.17,1.17,0,0,0,.65.21c.29,0,.44.33.44,1a9.38,9.38,0,0,1-.38,2.28,8.53,8.53,0,0,1-.93,2.28,17.08,17.08,0,0,0-1.2,1.31,1.6,1.6,0,0,0-.44.87l-1.64,1.52a9.63,9.63,0,0,1-4.91,1.19,8.15,8.15,0,0,1-4.69-1.19,16.62,16.62,0,0,1-3.28-3,9.5,9.5,0,0,1-2-3.2l-.55-1.09-3.16,2.06-2.73,2.83c-.58.72-1.09,1.09-1.53,1.09h-1.09c0,.5-1,1.12-3.05,1.84a15.34,15.34,0,0,1-4.81,1.09C353.83,76.45,352.33,75.8,350.59,74.2Zm11.73-9.94a29.08,29.08,0,0,0,5.08-4.4c.29-.36.67-.88,1.14-1.57a11.09,11.09,0,0,1,1.26-1.58,35.73,35.73,0,0,0,2.56-3.31,4.43,4.43,0,0,0,.82-2.45,6,6,0,0,0-.76-2.39c-.3-.87-.73-1.3-1.31-1.3a11.81,11.81,0,0,0-2.51.76,18.59,18.59,0,0,0-4.86,4.89,59.72,59.72,0,0,0-4.86,7.5q-2.07,3.8-2.07,5.54a1.15,1.15,0,0,0,.22.65,2.5,2.5,0,0,0,.33.43Q358.56,67,362.32,64.26Z"/><path class="cls-1" d="M448.16,77.79a8.13,8.13,0,0,1-4.69-1.41,17.17,17.17,0,0,0-1-1.85,4.94,4.94,0,0,1-.76-2.5,3.79,3.79,0,0,1,.33-1.52,15.4,15.4,0,0,0,.65-3.7,9.25,9.25,0,0,1,.77-4.12,7.68,7.68,0,0,0,.71-2.28c.18-1,.34-1.81.49-2.39.07-.37.14-1,.21-1.8s.22-1.9.44-3.2l.33-3.26q-.76.87-6.28,8.47t-5.62,8a43.33,43.33,0,0,1-7.75,8.8,6.86,6.86,0,0,1-1.42.11,6.33,6.33,0,0,1-2.83-.76,22.75,22.75,0,0,0-2.29-.76l-1.75-3.59.76-3.91q2.83-13.24,2.84-17.38a5.1,5.1,0,0,0-.22-1.63,54.91,54.91,0,0,1-4.2,7.06q-1.9,2.61-5.18,6.3l-1.53,2c-2,2.54-3.73,4.67-5.3,6.41a27.17,27.17,0,0,1-5.29,4.56,4.14,4.14,0,0,1-4,2.72A5.57,5.57,0,0,1,392,74.91a3.7,3.7,0,0,1-1.59-3A4.46,4.46,0,0,1,392,68.77l.77-1.41,4.47-4.56q8-8.16,9.93-11.09A72.77,72.77,0,0,1,413.34,43a106.28,106.28,0,0,1,7.1-8.42A7.61,7.61,0,0,0,424.8,36a22.45,22.45,0,0,0,2.51,2.83q2.29,2,2.29,7.71a76.47,76.47,0,0,1-1.41,11.84c-.08.51-.19,1.11-.33,1.79a18.07,18.07,0,0,0-.33,2.23A161.43,161.43,0,0,1,438.77,47a134,134,0,0,1,11.46-12h4.37a7.17,7.17,0,0,0,1.85,1.09,11.57,11.57,0,0,0,2.08.54,12.51,12.51,0,0,0,.27,2.18,12.38,12.38,0,0,1,.27,2.06,3.1,3.1,0,0,1-.11,1c-.07.43-.14.92-.21,1.46a6.12,6.12,0,0,1-.77,2,19.92,19.92,0,0,0-1.58,5c-.48,2.25-1,5.15-1.58,8.69a12,12,0,0,1-1.53,4.24,13.55,13.55,0,0,0-.17,1.74,5,5,0,0,1-.49,2.06v1.74a5.84,5.84,0,0,1-.32,2.17v1a7.83,7.83,0,0,0,.54,2.5l-2.62,3.15A12.79,12.79,0,0,1,448.16,77.79Z"/><path class="cls-1" d="M488.27,75.34q-.6-1.57-1.48-4.83a6.59,6.59,0,0,1-.21-1.9v-1.8c-.3.66-.66,1.36-1.1,2.12a4.55,4.55,0,0,1-1.31,1.58,18.16,18.16,0,0,1-5,3.69,12,12,0,0,1-6,2.18,6.45,6.45,0,0,1-5.24-2.83,8.42,8.42,0,0,1-3.49-6.74,17,17,0,0,1,.22-2.06A40.81,40.81,0,0,1,465.78,57a59.48,59.48,0,0,1,3.55-9.45l3.28-6.52,1.74-3.37a5,5,0,0,1,1.75-.22,8.33,8.33,0,0,1,3.27.65c1,.44,1.57,1,1.64,1.74a2.87,2.87,0,0,1,.33,1.63q0,3.48-2.95,9.24l-.87,2.06c-1.31,3.12-2.26,5.54-2.84,7.28a14.31,14.31,0,0,0-.87,4.35,2.21,2.21,0,0,0,1.31,2.28,2.57,2.57,0,0,0,1.31.32c1.45,0,3.22-1.12,5.29-3.37s4.2-6,6.38-11.29A25.4,25.4,0,0,0,490,44.76a3.69,3.69,0,0,1,.65-2.61,7,7,0,0,1,2.3-2.28,3,3,0,0,1,1.2-1c.5-.25.83-.23,1,0l1.75-.1c.21-.08.56.25,1,1a5.27,5.27,0,0,0,1,1.31c.72.58,1.09,1.74,1.09,3.47q0,3.59-2.62,9.89a52.26,52.26,0,0,0-2.78,6.68,18.31,18.31,0,0,0-.82,4.51,12.84,12.84,0,0,0,.38,3.53,5.83,5.83,0,0,0,1.91,2.55c1.16.8,1.64,2.68,1.42,5.65a2,2,0,0,1-1.2,1.2,6,6,0,0,1-2.4.43,7.18,7.18,0,0,1-4-1.08A7.19,7.19,0,0,1,488.27,75.34Z"/><path class="cls-1" d="M42.61,26.38l.5-1.24c.26-.6.5-1.1.71-1.51s.44-.86.57-1.16c.75-1.58,1.2-2.61,1.4-3.14a6.3,6.3,0,0,0,.34-2.13,4.24,4.24,0,0,0-.71-2.2A8,8,0,0,0,44,13.32l-1.41-1.4h-.45a2.82,2.82,0,0,0-1.51.37,3.52,3.52,0,0,0-1.59.78A2.53,2.53,0,0,0,38,15a67.75,67.75,0,0,1-2.52,7.1c-1.63,4.3-3.21,8.36-4.69,12.08-3.63.06-6.47.13-8.48.19.5-1.2,1-2.36,1.49-3.5l1.73-4,.75-1.71c.26-.59.5-1.1.71-1.51s.44-.86.57-1.16c.75-1.58,1.2-2.6,1.4-3.14a6.3,6.3,0,0,0,.34-2.13,4.22,4.22,0,0,0-.71-2.2,8,8,0,0,0-1.38-1.68l-1.41-1.4h-.45a2.82,2.82,0,0,0-1.51.37,3.52,3.52,0,0,0-1.59.78,2.53,2.53,0,0,0-1.12,1.87,75,75,0,0,1-2.59,7.3c-1.66,4.41-3.28,8.58-4.83,12.39A39.25,39.25,0,0,0,9,35c-1.43.15-4.78.51-4.78,2.64a2.31,2.31,0,0,0,.53,1.43,3.57,3.57,0,0,0,3.17,1.69,9.12,9.12,0,0,0,2.56.34H11a1.89,1.89,0,0,0-.17.7,3.53,3.53,0,0,1-.12.46,4.6,4.6,0,0,0-.17.62,4.26,4.26,0,0,0-.5,1,4.78,4.78,0,0,0-.3,1.63,1.27,1.27,0,0,1,0,.34H9.37l-.89,2.47a31.51,31.51,0,0,0-3.62.31,14.37,14.37,0,0,0-3.18.6C.22,49.74,0,50.68,0,51.19a2.48,2.48,0,0,0,.45,1.3A3.41,3.41,0,0,0,1.8,53.86a4.26,4.26,0,0,0,2,.52,9.35,9.35,0,0,0,2.54.34q-.9,2.66-1.7,5.3c-.94,3-1.13,3.84-1.19,4.18l0,.2a8.15,8.15,0,0,1-.68,2.46l0,.16A13.86,13.86,0,0,0,2.38,70a8.74,8.74,0,0,0,1.07,4.48,3.67,3.67,0,0,0,3.22,2.09,3.23,3.23,0,0,0,1-.12l.15-.06A4.84,4.84,0,0,0,9.39,75.1a4,4,0,0,0,.68-2.65c0-1.08.82-5.06,4.69-17.81l8.49-.11c-1.82,5.49-2.79,8.67-3,9.68l0,.19a8.15,8.15,0,0,1-.68,2.46l0,.16a13.86,13.86,0,0,0-.3,2.93,8.74,8.74,0,0,0,1.07,4.48,3.67,3.67,0,0,0,3.22,2.09,3.23,3.23,0,0,0,.95-.12l.15-.06a4.84,4.84,0,0,0,1.62-1.24,4,4,0,0,0,.68-2.65c0-.61.27-2.33,1.56-7,1-3.59,2.06-7.28,3.19-11q1.23,0,1.77,0l.86,0L38,54.05a3.2,3.2,0,0,0,2.29-.52,2.45,2.45,0,0,0,1.06-2.07,3,3,0,0,0-1-2.19A5.33,5.33,0,0,0,38.51,48a8.16,8.16,0,0,0-2.66-.3H33.72a2.49,2.49,0,0,0,.64-1.7c0-.15.22-.62.79-2q.74-1.7,1.41-3.18l2-.06,3.62-.32a3.25,3.25,0,0,0,2.29-.52,2.51,2.51,0,0,0,1.06-2.14,3,3,0,0,0-.93-2.12,5.57,5.57,0,0,0-1.85-1.3h0a8.13,8.13,0,0,0-2.65-.3h-.82c.41-1,1.07-2.53,2.14-5C41.94,27.91,42.35,27,42.61,26.38ZM27.94,40.92a2.24,2.24,0,0,0-.25.89,3.53,3.53,0,0,1-.12.46,4.6,4.6,0,0,0-.17.62,4.26,4.26,0,0,0-.5,1,4.78,4.78,0,0,0-.3,1.63,1.27,1.27,0,0,1,0,.34h-.33l-.68,2c-1.61,0-3.82,0-6.73.13l-2,0a1.85,1.85,0,0,0,0-.26l0,0A2.49,2.49,0,0,0,17.49,46c0-.15.2-.6.73-1.91.44-1.07.88-2.08,1.32-3Z"/><path class="cls-1" d="M225.21,35.69c.23,0,.34-.11.34-.33a5.2,5.2,0,0,0-.42-1.51,3.82,3.82,0,0,1-1-1.67A6.4,6.4,0,0,1,223.7,30c0-.72.17-1.11.5-1.17a1,1,0,0,0,.59.17.9.9,0,0,0,.76-.33c-.11-.28.74-.23,2.56.16a15.34,15.34,0,0,1,4.07,1.34l.84.25h.25a2.07,2.07,0,0,1,1.34.75,19.9,19.9,0,0,0,4.61,1.42,22.42,22.42,0,0,0,4.7.84c.23-.06.4.07.51.37A3.66,3.66,0,0,1,244.6,35a8.16,8.16,0,0,1-.51,2.93A5.39,5.39,0,0,1,243,39.87a2.27,2.27,0,0,1-1.68.58,13.46,13.46,0,0,1-3.27-.66,27.52,27.52,0,0,0-6-1.34c-1.12,0-2.2-1.17-2.7-.5Z"/></g></g></svg>